<?xml version="1.0" standalone="no"?>
<!DOCTYPE svg PUBLIC "-//W3C//DTD SVG 20010904//EN"
 "http://www.w3.org/TR/2001/REC-SVG-20010904/DTD/svg10.dtd">
<svg version="1.0" xmlns="http://www.w3.org/2000/svg"
 width="32.000000pt" height="32.000000pt" viewBox="0 0 32.000000 32.000000"
 preserveAspectRatio="xMidYMid meet">

<g transform="translate(0.000000,32.000000) scale(0.100000,-0.100000)"
fill="#000000" stroke="none">
<path d="M107 249 c-21 -18 -36 -38 -33 -45 3 -7 1 -16 -4 -19 -6 -4 -10 -20
-10 -37 0 -64 101 -115 144 -73 8 8 18 15 23 15 13 0 34 40 28 50 -4 6 -1 10
4 10 12 0 14 32 5 67 -8 27 -47 54 -88 60 -25 3 -40 -3 -69 -28z m63 -4 c0
-13 3 -13 20 -3 24 15 37 4 20 -17 -10 -12 -10 -15 4 -15 21 0 21 -26 0 -34
-12 -5 -13 -10 -6 -19 15 -17 -1 -39 -21 -31 -13 4 -17 1 -17 -15 0 -12 -6
-21 -15 -21 -8 0 -15 7 -15 15 0 13 -3 13 -20 3 -22 -14 -39 -3 -22 14 16 16
15 29 -2 22 -23 -9 -29 14 -7 28 14 9 17 16 10 25 -15 17 -1 35 22 28 15 -5
19 -1 19 14 0 12 7 21 15 21 8 0 15 -7 15 -15z"/>
<path d="M135 194 c-19 -20 -19 -33 0 -40 17 -7 45 12 45 31 0 20 -28 26 -45
9z m25 -14 c0 -5 -4 -10 -10 -10 -5 0 -10 5 -10 10 0 6 5 10 10 10 6 0 10 -4
10 -10z"/>
</g>
</svg>
